<?xml version="1.0" encoding="utf-8" standalone="no"?>
<!DOCTYPE svg PUBLIC "-//W3C//DTD SVG 1.1//EN"
  "http://www.w3.org/Graphics/SVG/1.1/DTD/svg11.dtd">
<svg xmlns:xlink="http://www.w3.org/1999/xlink" width="460.8pt" height="345.6pt" viewBox="0 0 460.8 345.6" xmlns="http://www.w3.org/2000/svg" version="1.1">
 <metadata>
  <rdf:RDF xmlns:dc="http://purl.org/dc/elements/1.1/" xmlns:cc="http://creativecommons.org/ns#" xmlns:rdf="http://www.w3.org/1999/02/22-rdf-syntax-ns#">
   <cc:Work>
    <dc:type rdf:resource="http://purl.org/dc/dcmitype/StillImage"/>
    <dc:date>2023-02-26T16:38:08.546300</dc:date>
    <dc:format>image/svg+xml</dc:format>
    <dc:creator>
     <cc:Agent>
      <dc:title>Matplotlib v3.5.1, https://matplotlib.org/</dc:title>
     </cc:Agent>
    </dc:creator>
   </cc:Work>
  </rdf:RDF>
 </metadata>
 <defs>
  <style type="text/css">*{stroke-linejoin: round; stroke-linecap: butt}</style>
 </defs>
 <g id="figure_1">
  <g id="patch_1">
   <path d="M 0 345.6 
L 460.8 345.6 
L 460.8 0 
L 0 0 
z
" style="fill: #ffffff"/>
  </g>
  <g id="axes_1">
   <g id="patch_2">
    <path d="M 57.6 119.740235 
L 414.72 119.740235 
L 414.72 41.472 
L 57.6 41.472 
z
" style="fill: #ffffff"/>
   </g>
   <g id="matplotlib.axis_1">
    <g id="xtick_1">
     <g id="line2d_1">
      <path d="M 111.42351 119.740235 
L 111.42351 41.472 
" clip-path="url(#pb3632c04d1)" style="fill: none; stroke: #b0b0b0; stroke-width: 0.8; stroke-linecap: square"/>
     </g>
     <g id="line2d_2">
      <defs>
       <path id="m64b98d7bbf" d="M 0 0 
L 0 3.5 
" style="stroke: #000000; stroke-width: 0.8"/>
      </defs>
      <g>
       <use xlink:href="#m64b98d7bbf" x="111.42351" y="119.740235" style="stroke: #000000; stroke-width: 0.8"/>
      </g>
     </g>
     <g id="text_1">
      <!-- 6 -->
      <g transform="translate(108.24226 134.338673)scale(0.1 -0.1)">
       <defs>
        <path id="DejaVuSans-36" d="M 2113 2584 
Q 1688 2584 1439 2293 
Q 1191 2003 1191 1497 
Q 1191 994 1439 701 
Q 1688 409 2113 409 
Q 2538 409 2786 701 
Q 3034 994 3034 1497 
Q 3034 2003 2786 2293 
Q 2538 2584 2113 2584 
z
M 3366 4563 
L 3366 3988 
Q 3128 4100 2886 4159 
Q 2644 4219 2406 4219 
Q 1781 4219 1451 3797 
Q 1122 3375 1075 2522 
Q 1259 2794 1537 2939 
Q 1816 3084 2150 3084 
Q 2853 3084 3261 2657 
Q 3669 2231 3669 1497 
Q 3669 778 3244 343 
Q 2819 -91 2113 -91 
Q 1303 -91 875 529 
Q 447 1150 447 2328 
Q 447 3434 972 4092 
Q 1497 4750 2381 4750 
Q 2619 4750 2861 4703 
Q 3103 4656 3366 4563 
z
" transform="scale(0.015625)"/>
       </defs>
       <use xlink:href="#DejaVuSans-36"/>
      </g>
     </g>
    </g>
    <g id="xtick_2">
     <g id="line2d_3">
      <path d="M 186.907009 119.740235 
L 186.907009 41.472 
" clip-path="url(#pb3632c04d1)" style="fill: none; stroke: #b0b0b0; stroke-width: 0.8; stroke-linecap: square"/>
     </g>
     <g id="line2d_4">
      <g>
       <use xlink:href="#m64b98d7bbf" x="186.907009" y="119.740235" style="stroke: #000000; stroke-width: 0.8"/>
      </g>
     </g>
     <g id="text_2">
      <!-- 8 -->
      <g transform="translate(183.725759 134.338673)scale(0.1 -0.1)">
       <defs>
        <path id="DejaVuSans-38" d="M 2034 2216 
Q 1584 2216 1326 1975 
Q 1069 1734 1069 1313 
Q 1069 891 1326 650 
Q 1584 409 2034 409 
Q 2484 409 2743 651 
Q 3003 894 3003 1313 
Q 3003 1734 2745 1975 
Q 2488 2216 2034 2216 
z
M 1403 2484 
Q 997 2584 770 2862 
Q 544 3141 544 3541 
Q 544 4100 942 4425 
Q 1341 4750 2034 4750 
Q 2731 4750 3128 4425 
Q 3525 4100 3525 3541 
Q 3525 3141 3298 2862 
Q 3072 2584 2669 2484 
Q 3125 2378 3379 2068 
Q 3634 1759 3634 1313 
Q 3634 634 3220 271 
Q 2806 -91 2034 -91 
Q 1263 -91 848 271 
Q 434 634 434 1313 
Q 434 1759 690 2068 
Q 947 2378 1403 2484 
z
M 1172 3481 
Q 1172 3119 1398 2916 
Q 1625 2713 2034 2713 
Q 2441 2713 2670 2916 
Q 2900 3119 2900 3481 
Q 2900 3844 2670 4047 
Q 2441 4250 2034 4250 
Q 1625 4250 1398 4047 
Q 1172 3844 1172 3481 
z
" transform="scale(0.015625)"/>
       </defs>
       <use xlink:href="#DejaVuSans-38"/>
      </g>
     </g>
    </g>
    <g id="xtick_3">
     <g id="line2d_5">
      <path d="M 262.390508 119.740235 
L 262.390508 41.472 
" clip-path="url(#pb3632c04d1)" style="fill: none; stroke: #b0b0b0; stroke-width: 0.8; stroke-linecap: square"/>
     </g>
     <g id="line2d_6">
      <g>
       <use xlink:href="#m64b98d7bbf" x="262.390508" y="119.740235" style="stroke: #000000; stroke-width: 0.8"/>
      </g>
     </g>
     <g id="text_3">
      <!-- 10 -->
      <g transform="translate(256.028008 134.338673)scale(0.1 -0.1)">
       <defs>
        <path id="DejaVuSans-31" d="M 794 531 
L 1825 531 
L 1825 4091 
L 703 3866 
L 703 4441 
L 1819 4666 
L 2450 4666 
L 2450 531 
L 3481 531 
L 3481 0 
L 794 0 
L 794 531 
z
" transform="scale(0.015625)"/>
        <path id="DejaVuSans-30" d="M 2034 4250 
Q 1547 4250 1301 3770 
Q 1056 3291 1056 2328 
Q 1056 1369 1301 889 
Q 1547 409 2034 409 
Q 2525 409 2770 889 
Q 3016 1369 3016 2328 
Q 3016 3291 2770 3770 
Q 2525 4250 2034 4250 
z
M 2034 4750 
Q 2819 4750 3233 4129 
Q 3647 3509 3647 2328 
Q 3647 1150 3233 529 
Q 2819 -91 2034 -91 
Q 1250 -91 836 529 
Q 422 1150 422 2328 
Q 422 3509 836 4129 
Q 1250 4750 2034 4750 
z
" transform="scale(0.015625)"/>
       </defs>
       <use xlink:href="#DejaVuSans-31"/>
       <use xlink:href="#DejaVuSans-30" x="63.623047"/>
      </g>
     </g>
    </g>
    <g id="xtick_4">
     <g id="line2d_7">
      <path d="M 337.874007 119.740235 
L 337.874007 41.472 
" clip-path="url(#pb3632c04d1)" style="fill: none; stroke: #b0b0b0; stroke-width: 0.8; stroke-linecap: square"/>
     </g>
     <g id="line2d_8">
      <g>
       <use xlink:href="#m64b98d7bbf" x="337.874007" y="119.740235" style="stroke: #000000; stroke-width: 0.8"/>
      </g>
     </g>
     <g id="text_4">
      <!-- 12 -->
      <g transform="translate(331.511507 134.338673)scale(0.1 -0.1)">
       <defs>
        <path id="DejaVuSans-32" d="M 1228 531 
L 3431 531 
L 3431 0 
L 469 0 
L 469 531 
Q 828 903 1448 1529 
Q 2069 2156 2228 2338 
Q 2531 2678 2651 2914 
Q 2772 3150 2772 3378 
Q 2772 3750 2511 3984 
Q 2250 4219 1831 4219 
Q 1534 4219 1204 4116 
Q 875 4013 500 3803 
L 500 4441 
Q 881 4594 1212 4672 
Q 1544 4750 1819 4750 
Q 2544 4750 2975 4387 
Q 3406 4025 3406 3419 
Q 3406 3131 3298 2873 
Q 3191 2616 2906 2266 
Q 2828 2175 2409 1742 
Q 1991 1309 1228 531 
z
" transform="scale(0.015625)"/>
       </defs>
       <use xlink:href="#DejaVuSans-31"/>
       <use xlink:href="#DejaVuSans-32" x="63.623047"/>
      </g>
     </g>
    </g>
    <g id="xtick_5">
     <g id="line2d_9">
      <path d="M 413.357507 119.740235 
L 413.357507 41.472 
" clip-path="url(#pb3632c04d1)" style="fill: none; stroke: #b0b0b0; stroke-width: 0.8; stroke-linecap: square"/>
     </g>
     <g id="line2d_10">
      <g>
       <use xlink:href="#m64b98d7bbf" x="413.357507" y="119.740235" style="stroke: #000000; stroke-width: 0.8"/>
      </g>
     </g>
     <g id="text_5">
      <!-- 14 -->
      <g transform="translate(406.995007 134.338673)scale(0.1 -0.1)">
       <defs>
        <path id="DejaVuSans-34" d="M 2419 4116 
L 825 1625 
L 2419 1625 
L 2419 4116 
z
M 2253 4666 
L 3047 4666 
L 3047 1625 
L 3713 1625 
L 3713 1100 
L 3047 1100 
L 3047 0 
L 2419 0 
L 2419 1100 
L 313 1100 
L 313 1709 
L 2253 4666 
z
" transform="scale(0.015625)"/>
       </defs>
       <use xlink:href="#DejaVuSans-31"/>
       <use xlink:href="#DejaVuSans-34" x="63.623047"/>
      </g>
     </g>
    </g>
   </g>
   <g id="matplotlib.axis_2">
    <g id="ytick_1">
     <g id="line2d_11">
      <path d="M 57.6 106.11989 
L 414.72 106.11989 
" clip-path="url(#pb3632c04d1)" style="fill: none; stroke: #b0b0b0; stroke-width: 0.8; stroke-linecap: square"/>
     </g>
     <g id="line2d_12">
      <defs>
       <path id="m98a7972c6b" d="M 0 0 
L -3.5 0 
" style="stroke: #000000; stroke-width: 0.8"/>
      </defs>
      <g>
       <use xlink:href="#m98a7972c6b" x="57.6" y="106.11989" style="stroke: #000000; stroke-width: 0.8"/>
      </g>
     </g>
     <g id="text_6">
      <!-- −0.2 -->
      <g transform="translate(26.317187 109.919109)scale(0.1 -0.1)">
       <defs>
        <path id="DejaVuSans-2212" d="M 678 2272 
L 4684 2272 
L 4684 1741 
L 678 1741 
L 678 2272 
z
" transform="scale(0.015625)"/>
        <path id="DejaVuSans-2e" d="M 684 794 
L 1344 794 
L 1344 0 
L 684 0 
L 684 794 
z
" transform="scale(0.015625)"/>
       </defs>
       <use xlink:href="#DejaVuSans-2212"/>
       <use xlink:href="#DejaVuSans-30" x="83.789062"/>
       <use xlink:href="#DejaVuSans-2e" x="147.412109"/>
       <use xlink:href="#DejaVuSans-32" x="179.199219"/>
      </g>
     </g>
    </g>
    <g id="ytick_2">
     <g id="line2d_13">
      <path d="M 57.6 78.626717 
L 414.72 78.626717 
" clip-path="url(#pb3632c04d1)" style="fill: none; stroke: #b0b0b0; stroke-width: 0.8; stroke-linecap: square"/>
     </g>
     <g id="line2d_14">
      <g>
       <use xlink:href="#m98a7972c6b" x="57.6" y="78.626717" style="stroke: #000000; stroke-width: 0.8"/>
      </g>
     </g>
     <g id="text_7">
      <!-- −0.1 -->
      <g transform="translate(26.317187 82.425936)scale(0.1 -0.1)">
       <use xlink:href="#DejaVuSans-2212"/>
       <use xlink:href="#DejaVuSans-30" x="83.789062"/>
       <use xlink:href="#DejaVuSans-2e" x="147.412109"/>
       <use xlink:href="#DejaVuSans-31" x="179.199219"/>
      </g>
     </g>
    </g>
    <g id="ytick_3">
     <g id="line2d_15">
      <path d="M 57.6 51.133545 
L 414.72 51.133545 
" clip-path="url(#pb3632c04d1)" style="fill: none; stroke: #b0b0b0; stroke-width: 0.8; stroke-linecap: square"/>
     </g>
     <g id="line2d_16">
      <g>
       <use xlink:href="#m98a7972c6b" x="57.6" y="51.133545" style="stroke: #000000; stroke-width: 0.8"/>
      </g>
     </g>
     <g id="text_8">
      <!-- 0.0 -->
      <g transform="translate(34.696875 54.932764)scale(0.1 -0.1)">
       <use xlink:href="#DejaVuSans-30"/>
       <use xlink:href="#DejaVuSans-2e" x="63.623047"/>
       <use xlink:href="#DejaVuSans-30" x="95.410156"/>
      </g>
     </g>
    </g>
    <g id="text_9">
     <!-- X [m] -->
     <g transform="translate(20.2375 94.392055)rotate(-90)scale(0.1 -0.1)">
      <defs>
       <path id="DejaVuSans-58" d="M 403 4666 
L 1081 4666 
L 2241 2931 
L 3406 4666 
L 4084 4666 
L 2584 2425 
L 4184 0 
L 3506 0 
L 2194 1984 
L 872 0 
L 191 0 
L 1856 2491 
L 403 4666 
z
" transform="scale(0.015625)"/>
       <path id="DejaVuSans-20" transform="scale(0.015625)"/>
       <path id="DejaVuSans-5b" d="M 550 4863 
L 1875 4863 
L 1875 4416 
L 1125 4416 
L 1125 -397 
L 1875 -397 
L 1875 -844 
L 550 -844 
L 550 4863 
z
" transform="scale(0.015625)"/>
       <path id="DejaVuSans-6d" d="M 3328 2828 
Q 3544 3216 3844 3400 
Q 4144 3584 4550 3584 
Q 5097 3584 5394 3201 
Q 5691 2819 5691 2113 
L 5691 0 
L 5113 0 
L 5113 2094 
Q 5113 2597 4934 2840 
Q 4756 3084 4391 3084 
Q 3944 3084 3684 2787 
Q 3425 2491 3425 1978 
L 3425 0 
L 2847 0 
L 2847 2094 
Q 2847 2600 2669 2842 
Q 2491 3084 2119 3084 
Q 1678 3084 1418 2786 
Q 1159 2488 1159 1978 
L 1159 0 
L 581 0 
L 581 3500 
L 1159 3500 
L 1159 2956 
Q 1356 3278 1631 3431 
Q 1906 3584 2284 3584 
Q 2666 3584 2933 3390 
Q 3200 3197 3328 2828 
z
" transform="scale(0.015625)"/>
       <path id="DejaVuSans-5d" d="M 1947 4863 
L 1947 -844 
L 622 -844 
L 622 -397 
L 1369 -397 
L 1369 4416 
L 622 4416 
L 622 4863 
L 1947 4863 
z
" transform="scale(0.015625)"/>
      </defs>
      <use xlink:href="#DejaVuSans-58"/>
      <use xlink:href="#DejaVuSans-20" x="68.505859"/>
      <use xlink:href="#DejaVuSans-5b" x="100.292969"/>
      <use xlink:href="#DejaVuSans-6d" x="139.306641"/>
      <use xlink:href="#DejaVuSans-5d" x="236.71875"/>
     </g>
    </g>
   </g>
   <g id="line2d_17">
    <path d="M 73.832727 52.233272 
L 78.135287 82.805685 
L 79.795924 93.133911 
L 81.230111 100.738465 
L 82.362363 105.598591 
L 83.419132 109.244844 
L 84.249451 111.398824 
L 85.079769 112.980169 
L 85.759121 113.869502 
L 86.362989 114.311489 
L 86.891373 114.44824 
L 87.495241 114.369245 
L 88.099109 114.037363 
L 88.702977 113.420474 
L 89.457812 112.30025 
L 90.363614 110.565389 
L 91.3449 108.15489 
L 92.779086 103.946889 
L 94.36424 98.550829 
L 100.478404 77.422558 
L 101.91259 73.443191 
L 103.573227 69.584684 
L 104.780963 67.34447 
L 106.139666 65.262832 
L 107.271919 63.971856 
L 108.555139 62.810747 
L 109.687391 62.132784 
L 111.046094 61.532025 
L 112.782215 61.140698 
L 113.989951 61.020268 
L 117.764126 60.732601 
L 120.255081 60.328367 
L 122.293136 59.741143 
L 124.935059 58.593992 
L 127.803432 56.997755 
L 129.841486 55.726266 
L 135.200815 52.552995 
L 139.427891 50.631239 
L 142.371748 49.738839 
L 147.202692 48.821807 
L 158.072316 47.602311 
L 166.300018 46.622704 
L 178.226412 45.60723 
L 194.530848 45.198888 
L 197.399221 45.172676 
L 208.948197 45.069213 
L 212.269471 45.045764 
L 214.911394 45.033559 
L 218.308152 45.056329 
L 221.327492 45.066904 
L 225.328117 45.062365 
L 228.121007 45.081293 
L 249.105421 45.39279 
L 252.124761 45.512807 
L 256.276353 45.675431 
L 259.295694 45.810086 
L 263.220836 45.964193 
L 265.862758 46.084176 
L 269.108549 46.200673 
L 271.901439 46.287964 
L 277.487218 46.494289 
L 280.204624 46.589074 
L 283.903316 46.654652 
L 297.263895 46.841019 
L 301.189038 46.818578 
L 303.83096 46.816532 
L 307.152234 46.785414 
L 309.86964 46.766235 
L 315.078002 46.780425 
L 318.927661 46.825393 
L 321.4941 46.849658 
L 324.362473 46.886964 
L 335.684998 47.14131 
L 338.628855 47.199926 
L 345.120436 47.360935 
L 347.913326 47.409278 
L 398.487273 48.205606 
L 398.487273 48.205606 
" clip-path="url(#pb3632c04d1)" style="fill: none; stroke: #1f77b4; stroke-width: 1.5; stroke-linecap: square"/>
   </g>
   <g id="line2d_18">
    <path d="M 73.832727 52.783136 
L 78.286254 84.416994 
L 79.946891 94.683474 
L 81.381078 102.244372 
L 82.588814 107.377483 
L 83.645583 110.951895 
L 84.551385 113.225476 
L 85.381703 114.765132 
L 86.061055 115.60491 
L 86.664923 116.018973 
L 87.268791 116.178051 
L 87.872659 116.105611 
L 88.401043 115.824423 
L 89.080395 115.169425 
L 89.986197 113.922378 
L 90.891999 112.259621 
L 92.099735 109.458833 
L 93.458438 105.800746 
L 96.477778 96.656706 
L 98.968734 89.405569 
L 100.704854 85.042114 
L 101.988074 82.288692 
L 103.573227 79.464113 
L 104.70548 77.907926 
L 106.064183 76.390271 
L 107.120952 75.564127 
L 108.479655 74.743649 
L 109.687391 74.33015 
L 111.121578 74.000017 
L 113.914467 73.828575 
L 115.952522 73.74044 
L 117.386708 73.622095 
L 120.255081 73.049403 
L 122.217653 72.390625 
L 125.538927 70.806164 
L 127.12408 69.895938 
L 132.407925 66.802137 
L 136.785969 64.665264 
L 139.276924 63.741227 
L 142.220781 62.919752 
L 151.052351 61.279863 
L 162.223909 59.431847 
L 164.18648 59.11163 
L 168.866457 58.385396 
L 175.131588 57.577342 
L 178.981247 57.208763 
L 180.868334 57.060768 
L 185.246377 56.706888 
L 188.869586 56.406295 
L 194.304398 56.039897 
L 196.493419 55.886423 
L 199.96566 55.690399 
L 203.664352 55.444775 
L 206.834659 55.291329 
L 220.572657 54.562473 
L 223.44103 54.431875 
L 234.914522 53.893292 
L 238.084829 53.7728 
L 240.273851 53.710489 
L 243.897059 53.596128 
L 247.671234 53.558825 
L 249.558322 53.562551 
L 256.20087 53.583959 
L 259.144727 53.633033 
L 265.409857 53.69639 
L 267.447912 53.703378 
L 271.901439 53.72288 
L 277.411734 53.765432 
L 280.355591 53.821156 
L 289.489095 54.042489 
L 292.357468 54.1078 
L 305.189663 53.916261 
L 322.852803 53.314842 
L 328.514066 53.164547 
L 331.306955 53.099392 
L 351.46105 52.835751 
L 398.487273 52.359147 
L 398.487273 52.359147 
" clip-path="url(#pb3632c04d1)" style="fill: none; stroke: #ff0000; stroke-width: 1.5; stroke-linecap: square"/>
   </g>
   <g id="patch_3">
    <path d="M 57.6 119.740235 
L 57.6 41.472 
" style="fill: none; stroke: #000000; stroke-width: 0.8; stroke-linejoin: miter; stroke-linecap: square"/>
   </g>
   <g id="patch_4">
    <path d="M 414.72 119.740235 
L 414.72 41.472 
" style="fill: none; stroke: #000000; stroke-width: 0.8; stroke-linejoin: miter; stroke-linecap: square"/>
   </g>
   <g id="patch_5">
    <path d="M 57.6 119.740235 
L 414.72 119.740235 
" style="fill: none; stroke: #000000; stroke-width: 0.8; stroke-linejoin: miter; stroke-linecap: square"/>
   </g>
   <g id="patch_6">
    <path d="M 57.6 41.472 
L 414.72 41.472 
" style="fill: none; stroke: #000000; stroke-width: 0.8; stroke-linejoin: miter; stroke-linecap: square"/>
   </g>
   <g id="text_10">
    <!-- Position Error -->
    <g transform="translate(196.274063 35.472)scale(0.12 -0.12)">
     <defs>
      <path id="DejaVuSans-50" d="M 1259 4147 
L 1259 2394 
L 2053 2394 
Q 2494 2394 2734 2622 
Q 2975 2850 2975 3272 
Q 2975 3691 2734 3919 
Q 2494 4147 2053 4147 
L 1259 4147 
z
M 628 4666 
L 2053 4666 
Q 2838 4666 3239 4311 
Q 3641 3956 3641 3272 
Q 3641 2581 3239 2228 
Q 2838 1875 2053 1875 
L 1259 1875 
L 1259 0 
L 628 0 
L 628 4666 
z
" transform="scale(0.015625)"/>
      <path id="DejaVuSans-6f" d="M 1959 3097 
Q 1497 3097 1228 2736 
Q 959 2375 959 1747 
Q 959 1119 1226 758 
Q 1494 397 1959 397 
Q 2419 397 2687 759 
Q 2956 1122 2956 1747 
Q 2956 2369 2687 2733 
Q 2419 3097 1959 3097 
z
M 1959 3584 
Q 2709 3584 3137 3096 
Q 3566 2609 3566 1747 
Q 3566 888 3137 398 
Q 2709 -91 1959 -91 
Q 1206 -91 779 398 
Q 353 888 353 1747 
Q 353 2609 779 3096 
Q 1206 3584 1959 3584 
z
" transform="scale(0.015625)"/>
      <path id="DejaVuSans-73" d="M 2834 3397 
L 2834 2853 
Q 2591 2978 2328 3040 
Q 2066 3103 1784 3103 
Q 1356 3103 1142 2972 
Q 928 2841 928 2578 
Q 928 2378 1081 2264 
Q 1234 2150 1697 2047 
L 1894 2003 
Q 2506 1872 2764 1633 
Q 3022 1394 3022 966 
Q 3022 478 2636 193 
Q 2250 -91 1575 -91 
Q 1294 -91 989 -36 
Q 684 19 347 128 
L 347 722 
Q 666 556 975 473 
Q 1284 391 1588 391 
Q 1994 391 2212 530 
Q 2431 669 2431 922 
Q 2431 1156 2273 1281 
Q 2116 1406 1581 1522 
L 1381 1569 
Q 847 1681 609 1914 
Q 372 2147 372 2553 
Q 372 3047 722 3315 
Q 1072 3584 1716 3584 
Q 2034 3584 2315 3537 
Q 2597 3491 2834 3397 
z
" transform="scale(0.015625)"/>
      <path id="DejaVuSans-69" d="M 603 3500 
L 1178 3500 
L 1178 0 
L 603 0 
L 603 3500 
z
M 603 4863 
L 1178 4863 
L 1178 4134 
L 603 4134 
L 603 4863 
z
" transform="scale(0.015625)"/>
      <path id="DejaVuSans-74" d="M 1172 4494 
L 1172 3500 
L 2356 3500 
L 2356 3053 
L 1172 3053 
L 1172 1153 
Q 1172 725 1289 603 
Q 1406 481 1766 481 
L 2356 481 
L 2356 0 
L 1766 0 
Q 1100 0 847 248 
Q 594 497 594 1153 
L 594 3053 
L 172 3053 
L 172 3500 
L 594 3500 
L 594 4494 
L 1172 4494 
z
" transform="scale(0.015625)"/>
      <path id="DejaVuSans-6e" d="M 3513 2113 
L 3513 0 
L 2938 0 
L 2938 2094 
Q 2938 2591 2744 2837 
Q 2550 3084 2163 3084 
Q 1697 3084 1428 2787 
Q 1159 2491 1159 1978 
L 1159 0 
L 581 0 
L 581 3500 
L 1159 3500 
L 1159 2956 
Q 1366 3272 1645 3428 
Q 1925 3584 2291 3584 
Q 2894 3584 3203 3211 
Q 3513 2838 3513 2113 
z
" transform="scale(0.015625)"/>
      <path id="DejaVuSans-45" d="M 628 4666 
L 3578 4666 
L 3578 4134 
L 1259 4134 
L 1259 2753 
L 3481 2753 
L 3481 2222 
L 1259 2222 
L 1259 531 
L 3634 531 
L 3634 0 
L 628 0 
L 628 4666 
z
" transform="scale(0.015625)"/>
      <path id="DejaVuSans-72" d="M 2631 2963 
Q 2534 3019 2420 3045 
Q 2306 3072 2169 3072 
Q 1681 3072 1420 2755 
Q 1159 2438 1159 1844 
L 1159 0 
L 581 0 
L 581 3500 
L 1159 3500 
L 1159 2956 
Q 1341 3275 1631 3429 
Q 1922 3584 2338 3584 
Q 2397 3584 2469 3576 
Q 2541 3569 2628 3553 
L 2631 2963 
z
" transform="scale(0.015625)"/>
     </defs>
     <use xlink:href="#DejaVuSans-50"/>
     <use xlink:href="#DejaVuSans-6f" x="56.677734"/>
     <use xlink:href="#DejaVuSans-73" x="117.859375"/>
     <use xlink:href="#DejaVuSans-69" x="169.958984"/>
     <use xlink:href="#DejaVuSans-74" x="197.742188"/>
     <use xlink:href="#DejaVuSans-69" x="236.951172"/>
     <use xlink:href="#DejaVuSans-6f" x="264.734375"/>
     <use xlink:href="#DejaVuSans-6e" x="325.916016"/>
     <use xlink:href="#DejaVuSans-20" x="389.294922"/>
     <use xlink:href="#DejaVuSans-45" x="421.082031"/>
     <use xlink:href="#DejaVuSans-72" x="484.265625"/>
     <use xlink:href="#DejaVuSans-72" x="523.628906"/>
     <use xlink:href="#DejaVuSans-6f" x="562.492188"/>
     <use xlink:href="#DejaVuSans-72" x="623.673828"/>
    </g>
   </g>
   <g id="legend_1">
    <g id="patch_7">
     <path d="M 330.415313 114.740235 
L 407.72 114.740235 
Q 409.72 114.740235 409.72 112.740235 
L 409.72 84.383985 
Q 409.72 82.383985 407.72 82.383985 
L 330.415313 82.383985 
Q 328.415313 82.383985 328.415313 84.383985 
L 328.415313 112.740235 
Q 328.415313 114.740235 330.415313 114.740235 
z
" style="fill: #ffffff; opacity: 0.8; stroke: #cccccc; stroke-linejoin: miter"/>
    </g>
    <g id="line2d_19">
     <path d="M 332.415313 90.482423 
L 342.415313 90.482423 
L 352.415313 90.482423 
" style="fill: none; stroke: #1f77b4; stroke-width: 1.5; stroke-linecap: square"/>
    </g>
    <g id="text_11">
     <!-- Vehicle 1 -->
     <g transform="translate(360.415313 93.982423)scale(0.1 -0.1)">
      <defs>
       <path id="DejaVuSans-56" d="M 1831 0 
L 50 4666 
L 709 4666 
L 2188 738 
L 3669 4666 
L 4325 4666 
L 2547 0 
L 1831 0 
z
" transform="scale(0.015625)"/>
       <path id="DejaVuSans-65" d="M 3597 1894 
L 3597 1613 
L 953 1613 
Q 991 1019 1311 708 
Q 1631 397 2203 397 
Q 2534 397 2845 478 
Q 3156 559 3463 722 
L 3463 178 
Q 3153 47 2828 -22 
Q 2503 -91 2169 -91 
Q 1331 -91 842 396 
Q 353 884 353 1716 
Q 353 2575 817 3079 
Q 1281 3584 2069 3584 
Q 2775 3584 3186 3129 
Q 3597 2675 3597 1894 
z
M 3022 2063 
Q 3016 2534 2758 2815 
Q 2500 3097 2075 3097 
Q 1594 3097 1305 2825 
Q 1016 2553 972 2059 
L 3022 2063 
z
" transform="scale(0.015625)"/>
       <path id="DejaVuSans-68" d="M 3513 2113 
L 3513 0 
L 2938 0 
L 2938 2094 
Q 2938 2591 2744 2837 
Q 2550 3084 2163 3084 
Q 1697 3084 1428 2787 
Q 1159 2491 1159 1978 
L 1159 0 
L 581 0 
L 581 4863 
L 1159 4863 
L 1159 2956 
Q 1366 3272 1645 3428 
Q 1925 3584 2291 3584 
Q 2894 3584 3203 3211 
Q 3513 2838 3513 2113 
z
" transform="scale(0.015625)"/>
       <path id="DejaVuSans-63" d="M 3122 3366 
L 3122 2828 
Q 2878 2963 2633 3030 
Q 2388 3097 2138 3097 
Q 1578 3097 1268 2742 
Q 959 2388 959 1747 
Q 959 1106 1268 751 
Q 1578 397 2138 397 
Q 2388 397 2633 464 
Q 2878 531 3122 666 
L 3122 134 
Q 2881 22 2623 -34 
Q 2366 -91 2075 -91 
Q 1284 -91 818 406 
Q 353 903 353 1747 
Q 353 2603 823 3093 
Q 1294 3584 2113 3584 
Q 2378 3584 2631 3529 
Q 2884 3475 3122 3366 
z
" transform="scale(0.015625)"/>
       <path id="DejaVuSans-6c" d="M 603 4863 
L 1178 4863 
L 1178 0 
L 603 0 
L 603 4863 
z
" transform="scale(0.015625)"/>
      </defs>
      <use xlink:href="#DejaVuSans-56"/>
      <use xlink:href="#DejaVuSans-65" x="60.658203"/>
      <use xlink:href="#DejaVuSans-68" x="122.181641"/>
      <use xlink:href="#DejaVuSans-69" x="185.560547"/>
      <use xlink:href="#DejaVuSans-63" x="213.34375"/>
      <use xlink:href="#DejaVuSans-6c" x="268.324219"/>
      <use xlink:href="#DejaVuSans-65" x="296.107422"/>
      <use xlink:href="#DejaVuSans-20" x="357.630859"/>
      <use xlink:href="#DejaVuSans-31" x="389.417969"/>
     </g>
    </g>
    <g id="line2d_20">
     <path d="M 332.415313 105.160548 
L 342.415313 105.160548 
L 352.415313 105.160548 
" style="fill: none; stroke: #ff0000; stroke-width: 1.5; stroke-linecap: square"/>
    </g>
    <g id="text_12">
     <!-- Vehicle 2 -->
     <g transform="translate(360.415313 108.660548)scale(0.1 -0.1)">
      <use xlink:href="#DejaVuSans-56"/>
      <use xlink:href="#DejaVuSans-65" x="60.658203"/>
      <use xlink:href="#DejaVuSans-68" x="122.181641"/>
      <use xlink:href="#DejaVuSans-69" x="185.560547"/>
      <use xlink:href="#DejaVuSans-63" x="213.34375"/>
      <use xlink:href="#DejaVuSans-6c" x="268.324219"/>
      <use xlink:href="#DejaVuSans-65" x="296.107422"/>
      <use xlink:href="#DejaVuSans-20" x="357.630859"/>
      <use xlink:href="#DejaVuSans-32" x="389.417969"/>
     </g>
    </g>
   </g>
  </g>
  <g id="axes_2">
   <g id="patch_8">
    <path d="M 57.6 213.662118 
L 414.72 213.662118 
L 414.72 135.393882 
L 57.6 135.393882 
z
" style="fill: #ffffff"/>
   </g>
   <g id="matplotlib.axis_3">
    <g id="xtick_6">
     <g id="line2d_21">
      <path d="M 111.42351 213.662118 
L 111.42351 135.393882 
" clip-path="url(#p38955c8494)" style="fill: none; stroke: #b0b0b0; stroke-width: 0.8; stroke-linecap: square"/>
     </g>
     <g id="line2d_22">
      <g>
       <use xlink:href="#m64b98d7bbf" x="111.42351" y="213.662118" style="stroke: #000000; stroke-width: 0.8"/>
      </g>
     </g>
     <g id="text_13">
      <!-- 6 -->
      <g transform="translate(108.24226 228.260555)scale(0.1 -0.1)">
       <use xlink:href="#DejaVuSans-36"/>
      </g>
     </g>
    </g>
    <g id="xtick_7">
     <g id="line2d_23">
      <path d="M 186.907009 213.662118 
L 186.907009 135.393882 
" clip-path="url(#p38955c8494)" style="fill: none; stroke: #b0b0b0; stroke-width: 0.8; stroke-linecap: square"/>
     </g>
     <g id="line2d_24">
      <g>
       <use xlink:href="#m64b98d7bbf" x="186.907009" y="213.662118" style="stroke: #000000; stroke-width: 0.8"/>
      </g>
     </g>
     <g id="text_14">
      <!-- 8 -->
      <g transform="translate(183.725759 228.260555)scale(0.1 -0.1)">
       <use xlink:href="#DejaVuSans-38"/>
      </g>
     </g>
    </g>
    <g id="xtick_8">
     <g id="line2d_25">
      <path d="M 262.390508 213.662118 
L 262.390508 135.393882 
" clip-path="url(#p38955c8494)" style="fill: none; stroke: #b0b0b0; stroke-width: 0.8; stroke-linecap: square"/>
     </g>
     <g id="line2d_26">
      <g>
       <use xlink:href="#m64b98d7bbf" x="262.390508" y="213.662118" style="stroke: #000000; stroke-width: 0.8"/>
      </g>
     </g>
     <g id="text_15">
      <!-- 10 -->
      <g transform="translate(256.028008 228.260555)scale(0.1 -0.1)">
       <use xlink:href="#DejaVuSans-31"/>
       <use xlink:href="#DejaVuSans-30" x="63.623047"/>
      </g>
     </g>
    </g>
    <g id="xtick_9">
     <g id="line2d_27">
      <path d="M 337.874007 213.662118 
L 337.874007 135.393882 
" clip-path="url(#p38955c8494)" style="fill: none; stroke: #b0b0b0; stroke-width: 0.8; stroke-linecap: square"/>
     </g>
     <g id="line2d_28">
      <g>
       <use xlink:href="#m64b98d7bbf" x="337.874007" y="213.662118" style="stroke: #000000; stroke-width: 0.8"/>
      </g>
     </g>
     <g id="text_16">
      <!-- 12 -->
      <g transform="translate(331.511507 228.260555)scale(0.1 -0.1)">
       <use xlink:href="#DejaVuSans-31"/>
       <use xlink:href="#DejaVuSans-32" x="63.623047"/>
      </g>
     </g>
    </g>
    <g id="xtick_10">
     <g id="line2d_29">
      <path d="M 413.357507 213.662118 
L 413.357507 135.393882 
" clip-path="url(#p38955c8494)" style="fill: none; stroke: #b0b0b0; stroke-width: 0.8; stroke-linecap: square"/>
     </g>
     <g id="line2d_30">
      <g>
       <use xlink:href="#m64b98d7bbf" x="413.357507" y="213.662118" style="stroke: #000000; stroke-width: 0.8"/>
      </g>
     </g>
     <g id="text_17">
      <!-- 14 -->
      <g transform="translate(406.995007 228.260555)scale(0.1 -0.1)">
       <use xlink:href="#DejaVuSans-31"/>
       <use xlink:href="#DejaVuSans-34" x="63.623047"/>
      </g>
     </g>
    </g>
   </g>
   <g id="matplotlib.axis_4">
    <g id="ytick_4">
     <g id="line2d_31">
      <path d="M 57.6 200.617412 
L 414.72 200.617412 
" clip-path="url(#p38955c8494)" style="fill: none; stroke: #b0b0b0; stroke-width: 0.8; stroke-linecap: square"/>
     </g>
     <g id="line2d_32">
      <g>
       <use xlink:href="#m98a7972c6b" x="57.6" y="200.617412" style="stroke: #000000; stroke-width: 0.8"/>
      </g>
     </g>
     <g id="text_18">
      <!-- −0.1 -->
      <g transform="translate(26.317187 204.416631)scale(0.1 -0.1)">
       <use xlink:href="#DejaVuSans-2212"/>
       <use xlink:href="#DejaVuSans-30" x="83.789062"/>
       <use xlink:href="#DejaVuSans-2e" x="147.412109"/>
       <use xlink:href="#DejaVuSans-31" x="179.199219"/>
      </g>
     </g>
    </g>
    <g id="ytick_5">
     <g id="line2d_33">
      <path d="M 57.6 174.528 
L 414.72 174.528 
" clip-path="url(#p38955c8494)" style="fill: none; stroke: #b0b0b0; stroke-width: 0.8; stroke-linecap: square"/>
     </g>
     <g id="line2d_34">
      <g>
       <use xlink:href="#m98a7972c6b" x="57.6" y="174.528" style="stroke: #000000; stroke-width: 0.8"/>
      </g>
     </g>
     <g id="text_19">
      <!-- 0.0 -->
      <g transform="translate(34.696875 178.327219)scale(0.1 -0.1)">
       <use xlink:href="#DejaVuSans-30"/>
       <use xlink:href="#DejaVuSans-2e" x="63.623047"/>
       <use xlink:href="#DejaVuSans-30" x="95.410156"/>
      </g>
     </g>
    </g>
    <g id="ytick_6">
     <g id="line2d_35">
      <path d="M 57.6 148.438588 
L 414.72 148.438588 
" clip-path="url(#p38955c8494)" style="fill: none; stroke: #b0b0b0; stroke-width: 0.8; stroke-linecap: square"/>
     </g>
     <g id="line2d_36">
      <g>
       <use xlink:href="#m98a7972c6b" x="57.6" y="148.438588" style="stroke: #000000; stroke-width: 0.8"/>
      </g>
     </g>
     <g id="text_20">
      <!-- 0.1 -->
      <g transform="translate(34.696875 152.237807)scale(0.1 -0.1)">
       <use xlink:href="#DejaVuSans-30"/>
       <use xlink:href="#DejaVuSans-2e" x="63.623047"/>
       <use xlink:href="#DejaVuSans-31" x="95.410156"/>
      </g>
     </g>
    </g>
    <g id="text_21">
     <!-- Y [m] -->
     <g transform="translate(20.2375 187.942844)rotate(-90)scale(0.1 -0.1)">
      <defs>
       <path id="DejaVuSans-59" d="M -13 4666 
L 666 4666 
L 1959 2747 
L 3244 4666 
L 3922 4666 
L 2272 2222 
L 2272 0 
L 1638 0 
L 1638 2222 
L -13 4666 
z
" transform="scale(0.015625)"/>
      </defs>
      <use xlink:href="#DejaVuSans-59"/>
      <use xlink:href="#DejaVuSans-20" x="61.083984"/>
      <use xlink:href="#DejaVuSans-5b" x="92.871094"/>
      <use xlink:href="#DejaVuSans-6d" x="131.884766"/>
      <use xlink:href="#DejaVuSans-5d" x="229.296875"/>
     </g>
    </g>
   </g>
   <g id="line2d_37">
    <path d="M 73.832727 174.52798 
L 77.154001 174.634906 
L 80.324309 174.744439 
L 97.006163 174.797573 
L 101.308722 174.764219 
L 107.347403 174.739411 
L 117.613159 174.808323 
L 120.707982 174.820056 
L 126.973113 174.783936 
L 130.218904 174.783386 
L 134.596947 174.768971 
L 144.938187 174.745568 
L 148.108494 174.741641 
L 151.882669 174.752832 
L 155.12846 174.735457 
L 159.506503 174.726484 
L 167.583238 174.734655 
L 170.979995 174.725561 
L 174.074819 174.724401 
L 180.490917 174.78715 
L 183.510257 174.825634 
L 200.569528 175.567842 
L 204.04177 175.835307 
L 207.136593 176.079933 
L 216.270097 176.84837 
L 225.630051 177.160029 
L 232.574534 176.723458 
L 238.688697 175.649136 
L 240.500301 175.157809 
L 242.764806 174.457795 
L 245.63318 173.416356 
L 247.520267 172.616501 
L 251.67186 170.761952 
L 254.162815 169.684305 
L 256.125386 168.962207 
L 257.786024 168.462423 
L 260.201496 167.980269 
L 262.466001 167.827154 
L 264.805989 167.990386 
L 267.296945 168.509991 
L 269.938867 169.395623 
L 273.184658 170.767218 
L 278.091086 172.758312 
L 280.12914 173.242952 
L 282.242678 173.378815 
L 284.280733 173.109755 
L 285.94137 172.584234 
L 287.22459 172.030285 
L 290.017479 170.474788 
L 295.678742 167.111165 
L 298.018731 166.124009 
L 300.132269 165.601026 
L 302.245807 165.473085 
L 304.283861 165.714696 
L 305.869015 166.143519 
L 307.378685 166.667329 
L 311.681245 168.626753 
L 315.530903 170.519337 
L 320.361847 172.442394 
L 324.966341 173.665804 
L 332.06179 174.751879 
L 335.684998 175.158243 
L 338.855306 175.519067 
L 349.498479 176.359744 
L 353.499105 176.482007 
L 357.499731 176.47725 
L 361.122939 176.367228 
L 371.313212 176.088087 
L 374.634486 176.034245 
L 378.257694 175.96527 
L 381.805419 175.936414 
L 385.353143 175.878387 
L 388.900868 175.848036 
L 392.524076 175.782586 
L 395.920834 175.749294 
L 398.487273 175.7064 
L 398.487273 175.7064 
" clip-path="url(#p38955c8494)" style="fill: none; stroke: #1f77b4; stroke-width: 1.5; stroke-linecap: square"/>
   </g>
   <g id="line2d_38">
    <path d="M 73.832727 174.528 
L 82.51333 174.447386 
L 93.835856 173.808198 
L 120.255081 174.394762 
L 125.916344 174.340393 
L 129.086651 174.327323 
L 133.16276 174.339988 
L 136.484035 174.373156 
L 139.729825 174.409752 
L 143.956901 174.443643 
L 149.240747 174.464247 
L 153.241372 174.464301 
L 156.487163 174.460046 
L 160.034887 174.443542 
L 163.507129 174.453281 
L 167.281304 174.439089 
L 170.451611 174.449349 
L 176.943192 174.422205 
L 180.038016 174.400711 
L 186.152179 174.269612 
L 189.322487 174.183446 
L 198.984375 173.592033 
L 210.684318 172.186977 
L 227.215205 169.637743 
L 232.046149 169.099002 
L 235.895808 168.808593 
L 242.764806 168.834862 
L 246.840916 169.275795 
L 248.728003 169.600589 
L 251.89831 170.22731 
L 257.559573 171.523921 
L 260.050529 172.000755 
L 262.692451 172.385652 
L 265.787275 172.65727 
L 272.35434 173.034969 
L 274.618845 173.316953 
L 276.656899 173.760459 
L 278.996888 174.593768 
L 281.261393 175.784379 
L 283.601381 177.429632 
L 286.394271 179.878287 
L 290.923281 184.343465 
L 293.187786 186.456501 
L 294.697456 187.686871 
L 296.660027 189.04878 
L 298.698082 190.072989 
L 300.58517 190.628455 
L 301.792906 190.759936 
L 303.529026 190.751584 
L 305.642564 190.363529 
L 307.907069 189.588816 
L 310.548992 188.366702 
L 318.70121 184.116277 
L 323.23022 182.178743 
L 326.626978 181.00858 
L 333.57146 178.973382 
L 345.648821 176.165696 
L 351.913952 175.212703 
L 359.462302 174.625852 
L 363.08551 174.456449 
L 366.180334 174.334992 
L 372.219014 174.159163 
L 376.144156 174.032823 
L 379.46543 173.934793 
L 382.786704 173.828663 
L 388.976351 173.709725 
L 392.373109 173.645572 
L 396.373735 173.600806 
L 398.487273 173.588744 
L 398.487273 173.588744 
" clip-path="url(#p38955c8494)" style="fill: none; stroke: #ff0000; stroke-width: 1.5; stroke-linecap: square"/>
   </g>
   <g id="patch_9">
    <path d="M 57.6 213.662118 
L 57.6 135.393882 
" style="fill: none; stroke: #000000; stroke-width: 0.8; stroke-linejoin: miter; stroke-linecap: square"/>
   </g>
   <g id="patch_10">
    <path d="M 414.72 213.662118 
L 414.72 135.393882 
" style="fill: none; stroke: #000000; stroke-width: 0.8; stroke-linejoin: miter; stroke-linecap: square"/>
   </g>
   <g id="patch_11">
    <path d="M 57.6 213.662118 
L 414.72 213.662118 
" style="fill: none; stroke: #000000; stroke-width: 0.8; stroke-linejoin: miter; stroke-linecap: square"/>
   </g>
   <g id="patch_12">
    <path d="M 57.6 135.393882 
L 414.72 135.393882 
" style="fill: none; stroke: #000000; stroke-width: 0.8; stroke-linejoin: miter; stroke-linecap: square"/>
   </g>
  </g>
  <g id="axes_3">
   <g id="patch_13">
    <path d="M 57.6 307.584 
L 414.72 307.584 
L 414.72 229.315765 
L 57.6 229.315765 
z
" style="fill: #ffffff"/>
   </g>
   <g id="matplotlib.axis_5">
    <g id="xtick_11">
     <g id="line2d_39">
      <path d="M 111.42351 307.584 
L 111.42351 229.315765 
" clip-path="url(#pb40b73259e)" style="fill: none; stroke: #b0b0b0; stroke-width: 0.8; stroke-linecap: square"/>
     </g>
     <g id="line2d_40">
      <g>
       <use xlink:href="#m64b98d7bbf" x="111.42351" y="307.584" style="stroke: #000000; stroke-width: 0.8"/>
      </g>
     </g>
     <g id="text_22">
      <!-- 6 -->
      <g transform="translate(108.24226 322.182437)scale(0.1 -0.1)">
       <use xlink:href="#DejaVuSans-36"/>
      </g>
     </g>
    </g>
    <g id="xtick_12">
     <g id="line2d_41">
      <path d="M 186.907009 307.584 
L 186.907009 229.315765 
" clip-path="url(#pb40b73259e)" style="fill: none; stroke: #b0b0b0; stroke-width: 0.8; stroke-linecap: square"/>
     </g>
     <g id="line2d_42">
      <g>
       <use xlink:href="#m64b98d7bbf" x="186.907009" y="307.584" style="stroke: #000000; stroke-width: 0.8"/>
      </g>
     </g>
     <g id="text_23">
      <!-- 8 -->
      <g transform="translate(183.725759 322.182437)scale(0.1 -0.1)">
       <use xlink:href="#DejaVuSans-38"/>
      </g>
     </g>
    </g>
    <g id="xtick_13">
     <g id="line2d_43">
      <path d="M 262.390508 307.584 
L 262.390508 229.315765 
" clip-path="url(#pb40b73259e)" style="fill: none; stroke: #b0b0b0; stroke-width: 0.8; stroke-linecap: square"/>
     </g>
     <g id="line2d_44">
      <g>
       <use xlink:href="#m64b98d7bbf" x="262.390508" y="307.584" style="stroke: #000000; stroke-width: 0.8"/>
      </g>
     </g>
     <g id="text_24">
      <!-- 10 -->
      <g transform="translate(256.028008 322.182437)scale(0.1 -0.1)">
       <use xlink:href="#DejaVuSans-31"/>
       <use xlink:href="#DejaVuSans-30" x="63.623047"/>
      </g>
     </g>
    </g>
    <g id="xtick_14">
     <g id="line2d_45">
      <path d="M 337.874007 307.584 
L 337.874007 229.315765 
" clip-path="url(#pb40b73259e)" style="fill: none; stroke: #b0b0b0; stroke-width: 0.8; stroke-linecap: square"/>
     </g>
     <g id="line2d_46">
      <g>
       <use xlink:href="#m64b98d7bbf" x="337.874007" y="307.584" style="stroke: #000000; stroke-width: 0.8"/>
      </g>
     </g>
     <g id="text_25">
      <!-- 12 -->
      <g transform="translate(331.511507 322.182437)scale(0.1 -0.1)">
       <use xlink:href="#DejaVuSans-31"/>
       <use xlink:href="#DejaVuSans-32" x="63.623047"/>
      </g>
     </g>
    </g>
    <g id="xtick_15">
     <g id="line2d_47">
      <path d="M 413.357507 307.584 
L 413.357507 229.315765 
" clip-path="url(#pb40b73259e)" style="fill: none; stroke: #b0b0b0; stroke-width: 0.8; stroke-linecap: square"/>
     </g>
     <g id="line2d_48">
      <g>
       <use xlink:href="#m64b98d7bbf" x="413.357507" y="307.584" style="stroke: #000000; stroke-width: 0.8"/>
      </g>
     </g>
     <g id="text_26">
      <!-- 14 -->
      <g transform="translate(406.995007 322.182437)scale(0.1 -0.1)">
       <use xlink:href="#DejaVuSans-31"/>
       <use xlink:href="#DejaVuSans-34" x="63.623047"/>
      </g>
     </g>
    </g>
    <g id="text_27">
     <!-- Time [s] -->
     <g transform="translate(215.831094 335.860562)scale(0.1 -0.1)">
      <defs>
       <path id="DejaVuSans-54" d="M -19 4666 
L 3928 4666 
L 3928 4134 
L 2272 4134 
L 2272 0 
L 1638 0 
L 1638 4134 
L -19 4134 
L -19 4666 
z
" transform="scale(0.015625)"/>
      </defs>
      <use xlink:href="#DejaVuSans-54"/>
      <use xlink:href="#DejaVuSans-69" x="57.958984"/>
      <use xlink:href="#DejaVuSans-6d" x="85.742188"/>
      <use xlink:href="#DejaVuSans-65" x="183.154297"/>
      <use xlink:href="#DejaVuSans-20" x="244.677734"/>
      <use xlink:href="#DejaVuSans-5b" x="276.464844"/>
      <use xlink:href="#DejaVuSans-73" x="315.478516"/>
      <use xlink:href="#DejaVuSans-5d" x="367.578125"/>
     </g>
    </g>
   </g>
   <g id="matplotlib.axis_6">
    <g id="ytick_7">
     <g id="line2d_49">
      <path d="M 57.6 291.111968 
L 414.72 291.111968 
" clip-path="url(#pb40b73259e)" style="fill: none; stroke: #b0b0b0; stroke-width: 0.8; stroke-linecap: square"/>
     </g>
     <g id="line2d_50">
      <g>
       <use xlink:href="#m98a7972c6b" x="57.6" y="291.111968" style="stroke: #000000; stroke-width: 0.8"/>
      </g>
     </g>
     <g id="text_28">
      <!-- −0.10 -->
      <g transform="translate(19.954687 294.911187)scale(0.1 -0.1)">
       <use xlink:href="#DejaVuSans-2212"/>
       <use xlink:href="#DejaVuSans-30" x="83.789062"/>
       <use xlink:href="#DejaVuSans-2e" x="147.412109"/>
       <use xlink:href="#DejaVuSans-31" x="179.199219"/>
       <use xlink:href="#DejaVuSans-30" x="242.822266"/>
      </g>
     </g>
    </g>
    <g id="ytick_8">
     <g id="line2d_51">
      <path d="M 57.6 261.750726 
L 414.72 261.750726 
" clip-path="url(#pb40b73259e)" style="fill: none; stroke: #b0b0b0; stroke-width: 0.8; stroke-linecap: square"/>
     </g>
     <g id="line2d_52">
      <g>
       <use xlink:href="#m98a7972c6b" x="57.6" y="261.750726" style="stroke: #000000; stroke-width: 0.8"/>
      </g>
     </g>
     <g id="text_29">
      <!-- −0.05 -->
      <g transform="translate(19.954687 265.549944)scale(0.1 -0.1)">
       <defs>
        <path id="DejaVuSans-35" d="M 691 4666 
L 3169 4666 
L 3169 4134 
L 1269 4134 
L 1269 2991 
Q 1406 3038 1543 3061 
Q 1681 3084 1819 3084 
Q 2600 3084 3056 2656 
Q 3513 2228 3513 1497 
Q 3513 744 3044 326 
Q 2575 -91 1722 -91 
Q 1428 -91 1123 -41 
Q 819 9 494 109 
L 494 744 
Q 775 591 1075 516 
Q 1375 441 1709 441 
Q 2250 441 2565 725 
Q 2881 1009 2881 1497 
Q 2881 1984 2565 2268 
Q 2250 2553 1709 2553 
Q 1456 2553 1204 2497 
Q 953 2441 691 2322 
L 691 4666 
z
" transform="scale(0.015625)"/>
       </defs>
       <use xlink:href="#DejaVuSans-2212"/>
       <use xlink:href="#DejaVuSans-30" x="83.789062"/>
       <use xlink:href="#DejaVuSans-2e" x="147.412109"/>
       <use xlink:href="#DejaVuSans-30" x="179.199219"/>
       <use xlink:href="#DejaVuSans-35" x="242.822266"/>
      </g>
     </g>
    </g>
    <g id="ytick_9">
     <g id="line2d_53">
      <path d="M 57.6 232.389483 
L 414.72 232.389483 
" clip-path="url(#pb40b73259e)" style="fill: none; stroke: #b0b0b0; stroke-width: 0.8; stroke-linecap: square"/>
     </g>
     <g id="line2d_54">
      <g>
       <use xlink:href="#m98a7972c6b" x="57.6" y="232.389483" style="stroke: #000000; stroke-width: 0.8"/>
      </g>
     </g>
     <g id="text_30">
      <!-- 0.00 -->
      <g transform="translate(28.334375 236.188702)scale(0.1 -0.1)">
       <use xlink:href="#DejaVuSans-30"/>
       <use xlink:href="#DejaVuSans-2e" x="63.623047"/>
       <use xlink:href="#DejaVuSans-30" x="95.410156"/>
       <use xlink:href="#DejaVuSans-30" x="159.033203"/>
      </g>
     </g>
    </g>
    <g id="text_31">
     <!-- Z [m] -->
     <g transform="translate(13.875 282.23582)rotate(-90)scale(0.1 -0.1)">
      <defs>
       <path id="DejaVuSans-5a" d="M 359 4666 
L 4025 4666 
L 4025 4184 
L 1075 531 
L 4097 531 
L 4097 0 
L 288 0 
L 288 481 
L 3238 4134 
L 359 4134 
L 359 4666 
z
" transform="scale(0.015625)"/>
      </defs>
      <use xlink:href="#DejaVuSans-5a"/>
      <use xlink:href="#DejaVuSans-20" x="68.505859"/>
      <use xlink:href="#DejaVuSans-5b" x="100.292969"/>
      <use xlink:href="#DejaVuSans-6d" x="139.306641"/>
      <use xlink:href="#DejaVuSans-5d" x="236.71875"/>
     </g>
    </g>
   </g>
   <g id="line2d_55">
    <path d="M 73.832727 232.873412 
L 75.795298 239.661009 
L 77.455935 244.618807 
L 78.739155 247.802913 
L 80.097858 250.613345 
L 81.683012 253.303827 
L 85.004286 258.921295 
L 86.287505 261.619933 
L 87.872659 265.581663 
L 89.457812 270.119375 
L 94.817141 285.744773 
L 96.402295 289.419143 
L 97.836481 292.186733 
L 99.195184 294.336549 
L 100.553887 296.109052 
L 102.139041 297.78271 
L 103.648711 299.078529 
L 105.611282 300.484288 
L 107.951271 301.837894 
L 110.215776 302.851463 
L 112.329314 303.518728 
L 114.291885 303.886032 
L 116.254456 304.023868 
L 118.443477 303.945886 
L 121.009917 303.614215 
L 124.255707 302.943769 
L 128.029882 301.935185 
L 132.860826 300.400081 
L 140.107243 297.841688 
L 153.996207 292.987912 
L 163.129711 290.037056 
L 172.338698 287.290749 
L 180.868334 284.966431 
L 188.643135 283.069923 
L 194.908266 281.753839 
L 200.720495 280.765283 
L 205.023055 280.225379 
L 208.948197 279.897026 
L 214.005592 279.745264 
L 218.761053 279.879784 
L 225.252634 280.382228 
L 230.234545 280.790784 
L 233.178402 280.896541 
L 236.046775 280.798121 
L 238.688697 280.466308 
L 240.953202 279.947602 
L 242.991257 279.255127 
L 244.878345 278.400303 
L 246.991883 277.181633 
L 249.331871 275.491928 
L 251.973794 273.181388 
L 256.729255 268.487899 
L 258.767309 266.63448 
L 259.975045 265.686057 
L 262.164067 264.31646 
L 264.202121 263.557687 
L 265.787275 263.356105 
L 266.844044 263.356881 
L 269.334999 263.759111 
L 273.788526 264.915195 
L 275.449163 265.209419 
L 277.638185 265.330475 
L 279.90269 265.134075 
L 282.997513 264.536899 
L 286.469755 263.89807 
L 288.658776 263.72554 
L 290.621347 263.773939 
L 292.659402 264.008785 
L 295.301324 264.514386 
L 299.603884 265.543246 
L 303.755477 266.396631 
L 306.548366 266.787991 
L 309.492223 267.004333 
L 313.492849 267.019912 
L 316.814123 266.832335 
L 321.947001 266.26436 
L 326.551495 265.488619 
L 331.382439 264.41232 
L 337.194668 262.852465 
L 361.273906 256.129353 
L 368.595806 254.482669 
L 376.144156 253.016386 
L 384.447341 251.640415 
L 393.882779 250.320396 
L 398.487273 249.752571 
L 398.487273 249.752571 
" clip-path="url(#pb40b73259e)" style="fill: none; stroke: #1f77b4; stroke-width: 1.5; stroke-linecap: square"/>
   </g>
   <g id="line2d_56">
    <path d="M 73.832727 232.873412 
L 75.946265 239.196052 
L 77.606902 243.525716 
L 78.965605 246.453227 
L 80.324309 248.870489 
L 82.362363 251.854072 
L 84.400418 254.857326 
L 85.985571 257.681163 
L 87.419758 260.824983 
L 88.929428 264.616361 
L 95.64746 282.431862 
L 97.232613 285.6691 
L 98.742283 288.265044 
L 100.327437 290.553466 
L 102.063557 292.639125 
L 103.799678 294.393321 
L 105.762249 296.083921 
L 107.875787 297.600423 
L 109.913842 298.765372 
L 111.800929 299.574603 
L 113.612533 300.112749 
L 115.575104 300.454082 
L 117.688642 300.583448 
L 120.104114 300.501896 
L 122.972488 300.182652 
L 126.89763 299.495412 
L 130.973739 298.574244 
L 136.861452 297.016988 
L 146.749791 294.138401 
L 164.035513 289.068546 
L 174.52772 286.236024 
L 185.170894 283.616913 
L 191.813442 282.183179 
L 197.474705 281.139732 
L 202.834034 280.368645 
L 208.872714 279.800982 
L 212.420438 279.637265 
L 219.13847 279.642388 
L 230.234545 279.975396 
L 234.537105 279.761726 
L 237.556445 279.32075 
L 240.273851 278.675329 
L 242.689323 277.872216 
L 245.029312 276.873819 
L 247.520267 275.569419 
L 250.313157 273.821898 
L 255.446035 270.111939 
L 258.163441 268.188625 
L 260.805364 266.605191 
L 263.598253 265.375837 
L 267.145978 264.358221 
L 269.259516 263.930337 
L 274.014977 262.631183 
L 276.958833 261.325793 
L 280.883975 259.218532 
L 283.601381 257.865616 
L 285.639436 257.104398 
L 287.375557 256.693205 
L 288.96071 256.532351 
L 290.621347 256.565719 
L 292.583918 256.852133 
L 294.848423 257.453264 
L 297.641313 258.45955 
L 306.246432 261.824948 
L 310.171574 262.997116 
L 313.341882 263.681928 
L 317.267024 264.246172 
L 320.512814 264.460748 
L 324.362473 264.458076 
L 327.759231 264.21149 
L 331.684373 263.696851 
L 336.36435 262.816553 
L 342.931415 261.293457 
L 364.444213 256.168404 
L 373.124816 254.464913 
L 382.560254 252.889379 
L 392.750527 251.458268 
L 398.487273 250.749444 
L 398.487273 250.749444 
" clip-path="url(#pb40b73259e)" style="fill: none; stroke: #ff0000; stroke-width: 1.5; stroke-linecap: square"/>
   </g>
   <g id="patch_14">
    <path d="M 57.6 307.584 
L 57.6 229.315765 
" style="fill: none; stroke: #000000; stroke-width: 0.8; stroke-linejoin: miter; stroke-linecap: square"/>
   </g>
   <g id="patch_15">
    <path d="M 414.72 307.584 
L 414.72 229.315765 
" style="fill: none; stroke: #000000; stroke-width: 0.8; stroke-linejoin: miter; stroke-linecap: square"/>
   </g>
   <g id="patch_16">
    <path d="M 57.6 307.584 
L 414.72 307.584 
" style="fill: none; stroke: #000000; stroke-width: 0.8; stroke-linejoin: miter; stroke-linecap: square"/>
   </g>
   <g id="patch_17">
    <path d="M 57.6 229.315765 
L 414.72 229.315765 
" style="fill: none; stroke: #000000; stroke-width: 0.8; stroke-linejoin: miter; stroke-linecap: square"/>
   </g>
  </g>
 </g>
 <defs>
  <clipPath id="pb3632c04d1">
   <rect x="57.6" y="41.472" width="357.12" height="78.268235"/>
  </clipPath>
  <clipPath id="p38955c8494">
   <rect x="57.6" y="135.393882" width="357.12" height="78.268235"/>
  </clipPath>
  <clipPath id="pb40b73259e">
   <rect x="57.6" y="229.315765" width="357.12" height="78.268235"/>
  </clipPath>
 </defs>
</svg>
