<svg id="type_python_noBorder_dark" xmlns="http://www.w3.org/2000/svg" width="40" height="40" viewBox="0 0 40 40">
  <rect id="Icon_Base" width="40" height="40" fill="none"/>
  <path id="python_logo" d="M307.908,4877.5a13.936,13.936,0,0,1-2.867-.288,9.771,9.771,0,0,1-2.337-.786,4.886,4.886,0,0,1-1.566-1.158,2.146,2.146,0,0,1-.567-1.4v-4.49h-.061v-3.351c0-1.661,1.024-3.6,3.912-3.6h7.049c2.982,0,4.57-2.993,4.57-5.153v-2.658h3.3a3.46,3.46,0,0,1,2.95,2.283,9.7,9.7,0,0,1,.749,2.359,14.722,14.722,0,0,1,0,5.4A9.537,9.537,0,0,1,322.3,4867a4.687,4.687,0,0,1-1.236,1.643,2.694,2.694,0,0,1-1.719.618H307.908v.984h7.337v3.629a2.145,2.145,0,0,1-.567,1.4,4.885,4.885,0,0,1-1.566,1.158,9.771,9.771,0,0,1-2.337.786A13.936,13.936,0,0,1,307.908,4877.5Zm-8.132-8.119h-3.327a3.46,3.46,0,0,1-2.95-2.283,9.7,9.7,0,0,1-.749-2.359,14.719,14.719,0,0,1,0-5.4,9.53,9.53,0,0,1,.745-2.339,4.678,4.678,0,0,1,1.236-1.643,2.694,2.694,0,0,1,1.719-.618h11.434v-.984h-7.337v-3.628a2.148,2.148,0,0,1,.567-1.4,4.9,4.9,0,0,1,1.566-1.158,9.763,9.763,0,0,1,2.337-.786,14.409,14.409,0,0,1,5.738,0,9.846,9.846,0,0,1,2.346.786,4.92,4.92,0,0,1,1.575,1.158,2.138,2.138,0,0,1,.571,1.4v4.49h.061v2.658c0,1.8-1.366,4.415-3.836,4.415h-7.049a4.255,4.255,0,0,0-4.646,4.338v3.351Z" transform="translate(-287.895 -4842)" fill="#fff" opacity="0.1"/>
  <path id="Path_6128" data-name="Path 6128" d="M6.331.019A3.352,3.352,0,0,1,3.51-1.287H3.389Q3.51-.076,3.51.184V4.1H1.477V-9.723H3.121q.069.268.286,1.281h.1A3.186,3.186,0,0,1,6.365-9.9a3.321,3.321,0,0,1,2.79,1.3,5.852,5.852,0,0,1,1,3.643A5.856,5.856,0,0,1,9.138-1.3,3.352,3.352,0,0,1,6.331.019ZM5.838-8.235a2.114,2.114,0,0,0-1.769.71A3.677,3.677,0,0,0,3.51-5.259v.3a4.476,4.476,0,0,0,.554,2.531,2.06,2.06,0,0,0,1.808.783A1.836,1.836,0,0,0,7.5-2.507,4.468,4.468,0,0,0,8.07-4.973,4.312,4.312,0,0,0,7.5-7.409,1.891,1.891,0,0,0,5.838-8.235Zm5.226-1.488h2.215L15.226-4.3a10.294,10.294,0,0,1,.588,2.18h.069a9.1,9.1,0,0,1,.286-1.155q.208-.679,2.2-6.451h2.2L16.472,1.118Q15.355,4.1,12.751,4.1a5.855,5.855,0,0,1-1.315-.147V2.347a4.765,4.765,0,0,0,1.047.1,2.144,2.144,0,0,0,2.068-1.7l.355-.9Z" transform="translate(9.523 22.896)" fill="#9f5b56" opacity="0.77"/>
</svg>
